<?xml version="1.0" encoding="UTF-8" standalone="no"?>
<!--?xml version="1.0" encoding="utf-8"?-->

<!-- Generator: Adobe Illustrator 18.0.0, SVG Export Plug-In . SVG Version: 6.00 Build 0)  -->

<svg
   version="1.1"
   id="_x31_0"
   x="0px"
   y="0px"
   viewBox="0 0 512 512"
   style="width: 512px; height: 512px; opacity: 1;"
   xml:space="preserve"
   sodipodi:docname="tbEditMode.svg"
   inkscape:version="1.3.2 (091e20e, 2023-11-25)"
   xmlns:inkscape="http://www.inkscape.org/namespaces/inkscape"
   xmlns:sodipodi="http://sodipodi.sourceforge.net/DTD/sodipodi-0.dtd"
   xmlns="http://www.w3.org/2000/svg"
   xmlns:svg="http://www.w3.org/2000/svg"><defs
   id="defs1" /><sodipodi:namedview
   id="namedview1"
   pagecolor="#ffffff"
   bordercolor="#000000"
   borderopacity="0.25"
   inkscape:showpageshadow="2"
   inkscape:pageopacity="0.0"
   inkscape:pagecheckerboard="0"
   inkscape:deskcolor="#d1d1d1"
   inkscape:zoom="1.0957031"
   inkscape:cx="256"
   inkscape:cy="256"
   inkscape:window-width="1664"
   inkscape:window-height="1212"
   inkscape:window-x="1080"
   inkscape:window-y="243"
   inkscape:window-maximized="0"
   inkscape:current-layer="g1" />
<style
   type="text/css"
   id="style1">
	.st0{fill:#374149;}
</style>
<g
   id="g1">
	<path
   class="st0"
   d="M507.574,92.442l-88-88c-5.906-5.906-15.477-5.906-21.379,0L44.293,358.343L0.39,498.953   c-0.48,1.542-0.473,3.058-0.218,4.511c0,0.024,0,0.047,0.008,0.062c0.129,0.742,0.339,1.446,0.633,2.13   c0.011,0.027,0.027,0.062,0.038,0.09c0.383,0.875,0.969,1.637,1.566,2.375c0.043,0.054,0.066,0.117,0.11,0.168   c0.5,0.598,1.09,1.062,1.703,1.538c0.246,0.188,0.469,0.387,0.73,0.555c0.602,0.386,1.222,0.672,1.894,0.926   c0.359,0.133,0.715,0.23,1.086,0.324c0.656,0.164,1.297,0.293,1.988,0.317c0.086,0,0.164,0.039,0.25,0.039c0.004,0,0.004,0,0.004,0   c0.438,0,0.867-0.141,1.305-0.203c0.527-0.07,1.035,0.007,1.566-0.16l140.617-43.902l353.902-353.902   C513.475,107.914,513.475,98.344,507.574,92.442z M76.218,360.957l0.055-0.054l-0.039-0.032   c11.199,2.356,32.148,17.516,44.766,30.141c12.629,12.618,27.636,33.418,29.996,44.618l0.117,0.113l-9.961,9.957l-0.496,0.5   l-71.164,22.219l-25.894-25.894l5.492-17.598l17.114-53.954l9.038-9.038l0.981-0.969L76.218,360.957z"
   style="fill:#000000;fill-opacity:1"
   id="path1" />
</g>
</svg>
