<?xml version="1.0" encoding="UTF-8" standalone="no"?>
<!--?xml version="1.0" encoding="utf-8"?-->

<!-- Generator: Adobe Illustrator 19.1.1, SVG Export Plug-In . SVG Version: 6.00 Build 0)  -->

<svg
   version="1.1"
   id="_x31_0"
   x="0px"
   y="0px"
   viewBox="0 0 512 512"
   style="width: 512px; height: 512px; opacity: 1;"
   xml:space="preserve"
   sodipodi:docname="tbMove.svg"
   inkscape:version="1.3.2 (091e20e, 2023-11-25)"
   xmlns:inkscape="http://www.inkscape.org/namespaces/inkscape"
   xmlns:sodipodi="http://sodipodi.sourceforge.net/DTD/sodipodi-0.dtd"
   xmlns="http://www.w3.org/2000/svg"
   xmlns:svg="http://www.w3.org/2000/svg"><defs
   id="defs1" /><sodipodi:namedview
   id="namedview1"
   pagecolor="#ffffff"
   bordercolor="#000000"
   borderopacity="0.25"
   inkscape:showpageshadow="2"
   inkscape:pageopacity="0.0"
   inkscape:pagecheckerboard="0"
   inkscape:deskcolor="#d1d1d1"
   inkscape:zoom="1.0957031"
   inkscape:cx="256"
   inkscape:cy="256"
   inkscape:window-width="1664"
   inkscape:window-height="1212"
   inkscape:window-x="1080"
   inkscape:window-y="243"
   inkscape:window-maximized="0"
   inkscape:current-layer="g1" />
<style
   type="text/css"
   id="style1">
	.st0{fill:#374149;}
</style>
<g
   id="g1">
	<path
   class="st0"
   d="M468.465,247.91c-2.558-10.647-16.761-11.634-22.949-12.067c-1.542-0.095-3.094-0.134-4.641-0.134   c-7.561,0-15.722,1.05-24.961,3.212c-26.318,6.22-50.162,21.01-63.35,39.038l-1.409,1.638l-1.014,1.014v-1.776h0.102l0.608-5.786   c3.796-36.109,10.434-78.572,20.288-129.819c1.282-6.669,4.874-24.183,6.267-30.86c2.174-10.41,4.424-21.184,6.223-31.871   c2.344-13.962-0.245-24.475-7.691-31.239c-3.923-3.56-8.75-5.438-13.958-5.438c-4.203,0-8.398,1.255-12.174,3.67   c-13.003,8.461-16.504,25.786-19.314,39.708c-0.643,3.166-1.247,6.188-1.934,8.879c-5.494,21.406-13.264,53.663-18.919,75.068   l-8.252,31.468c-0.45,1.737-0.848,3.552-1.254,5.406c-1.37,6.275-2.79,12.755-6.768,16.094c-2.06,1.744-4.633,2.746-7.072,2.746   c-1.2,0-2.321-0.245-3.279-0.71c-3.903-1.91-4.444-5.903-4.704-14.633c-0.88-36.062-1.535-72.937-1.942-109.622   c-0.241-15.644-0.659-41.792-0.659-57.554c-0.079-12.66-0.233-36.228-19.582-42.992c-2.53-0.9-5.083-1.35-7.589-1.35   c-14.59,0-24.59,15.114-26.591,29.314c-2.308,16.006-2.178,32.77-2.048,48.982c0.055,7.064,0.367,24.506,0.221,31.397   l-0.244,11.515c-0.391,18.454-0.782,36.954-1.453,55.446c-0.241,8.509-0.564,16.93-1.042,25.359   c-0.075,1.366-0.126,2.762-0.174,4.191c-0.194,5.635-0.398,11.468-2.566,15.691c-1.689,3.417-4.882,5.627-8.137,5.627   c-0.813,0-1.638-0.134-2.494-0.418c-4.459-1.452-6.89-5.643-8.39-14.475l-8.65-52.313c-5.095-30.142-11.161-71.784-16.33-101.832   c-1.954-11.721-11.697-29.061-26.409-29.061c-4.846,0-9.495,1.918-13.812,5.706c-13.607,11.918-9.649,32.407-6.761,47.372   c0.533,2.762,3.138,25.091,3.138,25.091c4.806,32.826,9.614,65.635,14.341,98.446c1.188,8.264,2.98,20.742-1.385,26.456   c-1.578,2.06-4.073,3.276-7.632,3.718c-0.565,0.071-1.109,0.102-1.638,0.102c-8.568,0-12.4-10.71-16.52-24.719   c-0.974-3.315-1.898-6.433-2.893-9.101l-3.441-8.99c-2.746-7.166-5.502-14.357-8.197-21.642c-1.511-3.954-6.235-15.833-7.62-19.945   c-2.546-7.57-5.182-15.399-8.73-22.715c-4.98-10.222-13.146-16.322-22.08-16.322c-5.008,0.079-9.31,2.013-12.438,5.604   c-6.302,7.214-5.51,18.477-5.115,21.744c1.07,9.014,7.455,25.478,10.387,33.868c0.872,2.494,1.736,4.964,2.534,7.411l1.203,3.686   c3.307,10.126,6.598,20.206,9.764,30.426c8.078,25.849,14.068,47.641,17.06,69.977l2.379,17.601   c7.037,52.976,14.996,112.898,70.45,139.006c-2.711,18.461-5.106,38.548-7.474,62.7l-0.615,6.298l-0.079,0.635h0.016L149.058,512   h145.613l-0.442-10.047c-0.166-5.525-0.406-11.137-0.651-16.678l-0.078-1.705c-0.486-10.221-1.046-20.363-1.622-30.758   l-0.339-6.109h-0.355l-0.233-3.939c8.516-3.322,16.37-7.308,23.875-12.099c33.595-21.294,56.867-56.89,65.577-100.04   c21.91-14.522,39.302-27.111,54.582-39.511c9.57-7.798,20.418-16.638,28.45-27.798C465.903,259.899,470.035,254.185,468.465,247.91   z"
   style="fill:#000000;fill-opacity:1"
   id="path1" />
</g>
</svg>
