<?xml version="1.0" encoding="UTF-8" standalone="no"?>
<!--?xml version="1.0" encoding="utf-8"?-->

<!-- Generator: Adobe Illustrator 18.1.1, SVG Export Plug-In . SVG Version: 6.00 Build 0)  -->

<svg
   version="1.1"
   id="_x31_0"
   x="0px"
   y="0px"
   viewBox="0 0 512 512"
   style="width: 512px; height: 512px; opacity: 1;"
   xml:space="preserve"
   sodipodi:docname="tbZoomOutSelect.svg"
   inkscape:version="1.3.2 (091e20e, 2023-11-25)"
   xmlns:inkscape="http://www.inkscape.org/namespaces/inkscape"
   xmlns:sodipodi="http://sodipodi.sourceforge.net/DTD/sodipodi-0.dtd"
   xmlns="http://www.w3.org/2000/svg"
   xmlns:svg="http://www.w3.org/2000/svg"><defs
   id="defs2" /><sodipodi:namedview
   id="namedview2"
   pagecolor="#ffffff"
   bordercolor="#000000"
   borderopacity="0.25"
   inkscape:showpageshadow="2"
   inkscape:pageopacity="0.0"
   inkscape:pagecheckerboard="0"
   inkscape:deskcolor="#d1d1d1"
   inkscape:zoom="1.0957031"
   inkscape:cx="256"
   inkscape:cy="256"
   inkscape:window-width="1664"
   inkscape:window-height="1212"
   inkscape:window-x="1080"
   inkscape:window-y="243"
   inkscape:window-maximized="0"
   inkscape:current-layer="g2" />
<style
   type="text/css"
   id="style1">
	.st0{fill:#374149;}
</style>
<g
   id="g2">
	<path
   class="st0"
   d="M222.218,131.088l-9.133-67.277l-0.011,0.011v-0.019l-0.082,0.082l-0.031-0.195l-32.785,32.786   c-8.168,8.168-21.465,8.168-29.629,0L58.91,4.752L58.672,4.51l0,0l-0.114-0.114L0,62.955l92.031,92.027   c3.961,3.962,6.137,9.223,6.137,14.817c0,5.598-2.176,10.859-6.137,14.813l-20.41,20.328l-12.386,12.183h0.004l-0.008,0.012   l0.121,0.015l-0.144,0.141l140.554,19.454l37.512,5.238l-0.004-0.046l0.18,0.027L222.218,131.088z"
   style="fill:#000000;fill-opacity:1"
   id="path1" />
	<path
   class="st0"
   d="M419.973,357.01c-3.957-3.954-6.137-9.215-6.137-14.817c0-5.594,2.18-10.855,6.133-14.813l20.446-20.351   l12.359-12.152l-0.016-0.004l0.016-0.012l-0.122-0.015l0.141-0.145l-140.086-19.387l-37.992-5.301l0.007,0.047l-0.164-0.023   l15.226,110.89l9.133,67.254l0.008-0.003v0.019l0.09-0.086l0.027,0.199l32.785-32.786c8.172-8.172,21.461-8.172,29.633,0   l91.985,92.078l58.308-58.313l0.13-0.121l0.117-0.129L419.973,357.01z"
   style="fill:#000000;fill-opacity:1"
   id="path2" />
</g>
</svg>
