<?xml version="1.0" encoding="UTF-8" standalone="no"?>
<!--?xml version="1.0" encoding="utf-8"?-->

<!-- Generator: Adobe Illustrator 18.0.0, SVG Export Plug-In . SVG Version: 6.00 Build 0)  -->

<svg
   version="1.1"
   id="_x31_0"
   x="0px"
   y="0px"
   viewBox="0 0 512 512"
   style="width: 512px; height: 512px; opacity: 1;"
   xml:space="preserve"
   sodipodi:docname="tbZoomOut.svg"
   inkscape:version="1.3.2 (091e20e, 2023-11-25)"
   xmlns:inkscape="http://www.inkscape.org/namespaces/inkscape"
   xmlns:sodipodi="http://sodipodi.sourceforge.net/DTD/sodipodi-0.dtd"
   xmlns="http://www.w3.org/2000/svg"
   xmlns:svg="http://www.w3.org/2000/svg"><defs
   id="defs2" /><sodipodi:namedview
   id="namedview2"
   pagecolor="#ffffff"
   bordercolor="#000000"
   borderopacity="0.25"
   inkscape:showpageshadow="2"
   inkscape:pageopacity="0.0"
   inkscape:pagecheckerboard="0"
   inkscape:deskcolor="#d1d1d1"
   inkscape:zoom="1.0957031"
   inkscape:cx="256"
   inkscape:cy="256"
   inkscape:window-width="1664"
   inkscape:window-height="1212"
   inkscape:window-x="1080"
   inkscape:window-y="243"
   inkscape:window-maximized="0"
   inkscape:current-layer="g2" />
<style
   type="text/css"
   id="style1">
	.st0{fill:#374149;}
</style>
<g
   id="g2">
	<path
   class="st0"
   d="M504.529,470.762l-144.37-144.787c10.312-13.044,19.003-27.391,25.85-42.734   c0.62-1.39,1.112-2.826,1.702-4.231c1.538-3.669,3.079-7.338,4.398-11.111c0.562-1.604,0.983-3.251,1.502-4.871   c1.19-3.7,2.393-7.396,3.372-11.19c0.211-0.823,0.344-1.674,0.542-2.502c3.732-15.261,5.827-31.162,5.851-47.57   C403.537,90.553,313.488,0.16,202.191,0c-16.326-0.027-32.164,2.01-47.374,5.659c-0.976,0.234-1.975,0.386-2.946,0.633   c-3.342,0.854-6.585,1.928-9.855,2.946c-2.069,0.644-4.172,1.182-6.218,1.893c-3.282,1.144-6.459,2.498-9.66,3.802   c-1.885,0.769-3.805,1.433-5.662,2.26c-15.308,6.791-29.62,15.421-42.617,25.658c-12.747,9.898-24.288,21.404-34.221,34.124   c-6.943,8.762-13.134,18.137-18.546,27.999c-0.164,0.297-0.297,0.609-0.457,0.91c-2.42,4.461-4.711,9.004-6.795,13.66   c-0.902,2.018-1.631,4.098-2.466,6.143c-1.242,3.049-2.541,6.066-3.638,9.184c-0.766,2.182-1.354,4.426-2.042,6.635   c-0.979,3.138-2.018,6.245-2.845,9.445c-0.34,1.315-0.558,2.666-0.87,3.993c-3.521,14.858-5.53,30.306-5.554,46.238   c-0.16,111.292,89.967,201.606,201.182,201.766c16.79,0.027,33.066-2.084,48.658-5.941c0.507-0.125,1.026-0.198,1.534-0.327   c3.77-0.964,7.443-2.15,11.124-3.326c1.65-0.523,3.333-0.948,4.968-1.514c3.361-1.167,6.616-2.549,9.89-3.887   c1.842-0.754,3.723-1.401,5.542-2.209c3.876-1.722,7.626-3.654,11.37-5.605c1.116-0.586,2.268-1.078,3.376-1.682   c9.804-5.358,19.132-11.494,27.871-18.363l144.37,144.787c4.668,4.762,10.87,7.111,17.075,7.119s12.334-2.318,17.095-7.068   C513.923,495.518,513.943,480.207,504.529,470.762z M353.009,201.693c-0.05,32.96-10.651,63.489-28.741,88.284   c-9.45,13.122-21.068,24.714-34.218,34.124c-24.85,18.016-55.41,28.526-88.37,28.479c-83.331-0.121-151.009-67.997-150.887-151.325   c0.05-32.964,10.729-63.493,28.737-88.288c9.531-13.122,21.072-24.628,34.222-34.12c24.846-18.016,55.406-28.526,88.37-28.479   C285.449,50.489,353.126,118.443,353.009,201.693z"
   style="fill:#000000;fill-opacity:1"
   id="path1" />
	<path
   class="st0"
   d="M101.191,180.375l-0.058,41.988c-0.012,6.932,5.624,12.579,12.634,12.591l87.52,0.125l68.34,0.102   l20.389,0.027c6.932,0.012,12.583-5.624,12.591-12.556l0.062-41.984c0.008-6.931-5.624-12.583-12.556-12.59l-87.519-0.129   l-68.341-0.098l-20.389-0.031C106.85,167.807,101.203,173.443,101.191,180.375z"
   style="fill:#000000;fill-opacity:1"
   id="path2" />
</g>
</svg>
