<?xml version="1.0" encoding="UTF-8" standalone="no"?>
<!--?xml version="1.0" encoding="utf-8"?-->

<!-- Generator: Adobe Illustrator 18.0.0, SVG Export Plug-In . SVG Version: 6.00 Build 0)  -->

<svg
   version="1.1"
   id="_x31_0"
   x="0px"
   y="0px"
   viewBox="0 0 512 512"
   style="width: 512px; height: 512px; opacity: 1;"
   xml:space="preserve"
   xmlns="http://www.w3.org/2000/svg"
   xmlns:svg="http://www.w3.org/2000/svg"><defs
   id="defs2" />
<style
   type="text/css"
   id="style1">
	.st0{fill:#374149;}
</style>
<g
   id="g2">
	<path
   class="st0"
   d="M504.528,470.679L360.24,325.975c6.928-8.77,13.106-18.153,18.512-28.023c0.172-0.313,0.308-0.64,0.48-0.953   c2.404-4.446,4.68-8.969,6.752-13.61c0.914-2.045,1.659-4.16,2.502-6.233c1.226-3.017,2.51-6.002,3.591-9.09   c0.773-2.21,1.37-4.473,2.065-6.71c0.968-3.114,1.998-6.198,2.818-9.374c0.347-1.343,0.57-2.721,0.886-4.071   c3.505-14.835,5.506-30.248,5.53-46.145c0.038-27.043-5.285-52.83-14.91-76.4c-0.117-0.293-0.222-0.585-0.343-0.878   c-1.097-2.654-2.268-5.27-3.474-7.869c-0.172-0.37-0.328-0.746-0.504-1.116c-1.28-2.709-2.63-5.378-4.024-8.021   c-0.117-0.218-0.222-0.449-0.339-0.667C345.944,43.351,279.16,0.11,202.194,0c-16.357-0.027-32.226,2.014-47.459,5.679   c-0.949,0.226-1.917,0.37-2.862,0.613c-3.36,0.858-6.63,1.939-9.925,2.966c-2.045,0.636-4.122,1.17-6.147,1.873   c-3.306,1.152-6.506,2.514-9.734,3.829c-1.858,0.758-3.755,1.413-5.59,2.229c-15.307,6.791-29.619,15.425-42.62,25.662   C65.115,52.745,53.57,64.173,43.559,76.892c-6.931,8.798-13.118,18.203-18.527,28.098c-0.07,0.129-0.129,0.269-0.198,0.402   c-2.518,4.626-4.875,9.348-7.03,14.187c-0.823,1.838-1.483,3.735-2.244,5.593c-1.327,3.232-2.694,6.44-3.852,9.754   c-0.703,2.002-1.234,4.063-1.87,6.089c-1.046,3.314-2.131,6.608-3.006,9.995c-0.304,1.179-0.496,2.389-0.777,3.571   c-3.575,14.972-5.608,30.545-5.632,46.602c-0.16,111.292,89.971,201.606,201.185,201.766c16.806,0.027,33.098-2.088,48.706-5.948   c0.487-0.122,0.991-0.195,1.479-0.32c3.782-0.964,7.47-2.158,11.166-3.338c1.636-0.522,3.306-0.94,4.93-1.502   c3.372-1.174,6.643-2.556,9.933-3.903c1.827-0.749,3.693-1.389,5.496-2.193c3.895-1.73,7.669-3.669,11.427-5.636   c1.097-0.574,2.233-1.058,3.318-1.651c9.808-5.358,19.136-11.494,27.879-18.363l144.366,144.787   c4.668,4.684,10.874,7.111,17.079,7.119c6.124,0.008,12.33-2.4,17.095-7.068C513.922,495.518,513.946,480.203,504.528,470.679z    M50.795,201.255c0.047-32.964,10.648-63.493,28.734-88.288c9.453-13.122,21.072-24.71,34.225-34.12   C138.6,60.831,169.16,50.321,202.12,50.368c83.327,0.121,151.009,67.993,150.887,151.325c-0.046,32.96-10.651,63.407-28.737,88.206   c-9.45,13.2-20.99,24.71-34.222,34.202c-24.85,18.016-55.406,28.526-88.366,28.479C118.352,352.459,50.674,284.583,50.795,201.255z   "
   style="fill:#000000;fill-opacity:1"
   id="path1" />
	<path
   class="st0"
   d="M302.609,221.203l0.058-39.166c0.012-7.74-6.268-14.035-13.922-14.043l-47.066-0.07   c-3.388-0.003-6.12-2.747-6.116-6.135l0.066-46.983c0.012-7.736-6.264-14.027-14-14.039l-39.17-0.058   c-7.736-0.012-13.95,6.264-13.961,14l-0.027,19.018l-0.043,27.965c-0.004,3.384-2.826,6.124-6.214,6.116l-28.042-0.039   l-26.755-0.038c-3.47-0.004-6.21,2.814-6.217,6.198l-0.078,54.801c-0.004,3.466,2.728,6.21,6.198,6.214l54.798,0.082   c3.388,0.004,6.202,2.747,6.198,6.131l-0.066,47.066c-0.011,7.654,6.182,13.949,13.918,13.961l39.17,0.058   c7.736,0.012,14.031-6.268,14.043-13.926l0.027-19.015l0.039-28.046c0.007-3.388,2.747-6.12,6.135-6.116l28.125,0.043l18.941,0.027   C296.306,235.215,302.597,228.939,302.609,221.203z"
   style="fill:currentColor;fill-opacity:1"
   id="path2" />
</g>
</svg>
